<?xml version="1.0" encoding="UTF-8" standalone="no"?>
<!DOCTYPE svg PUBLIC "-//W3C//DTD SVG 1.1//EN" "http://www.w3.org/Graphics/SVG/1.1/DTD/svg11.dtd">
<svg version="1.1" xmlns="http://www.w3.org/2000/svg" xmlns:xlink="http://www.w3.org/1999/xlink" preserveAspectRatio="xMidYMid meet" viewBox="0 0 240 40" width="240" height="40"><defs><path d="M-260.34 -94.52C-260.83 -93.73 -261 -92.94 -261.16 -92.11C-261.95 -87.68 -261.85 -83.33 -261.69 -78.52C-261.65 -77.41 -261.49 -76.11 -260.97 -75.31C-260.43 -74.51 -259.51 -74 -258.41 -73.83C-257.01 -73.62 -255.59 -73.45 -254.18 -73.31C-254.21 -72.44 -254.46 -65.48 -254.49 -64.61C-254.54 -63.92 -254.2 -63.34 -253.78 -63.01C-253.41 -62.72 -252.99 -62.6 -252.56 -62.57C-251.7 -62.5 -250.69 -62.87 -250.19 -63.82C-247.99 -68.05 -246.62 -69.91 -243.87 -72.72C-236.71 -72.54 -230.46 -72.94 -223.39 -73.46C-220.89 -73.53 -219.17 -75.57 -218.72 -77.21C-217.36 -81.44 -217.15 -86.66 -217 -91.94C-216.94 -94.04 -217.67 -96.09 -218.95 -97.18C-220.18 -98.17 -221.66 -98.53 -223.01 -98.89C-226.78 -99.75 -230.55 -100.2 -233.84 -100.23C-241.57 -100.23 -249.63 -98.49 -257.76 -96.24C-258.8 -96.03 -259.8 -95.35 -260.34 -94.52ZM-219.04 -91.91C-219.18 -86.79 -219.43 -81.82 -220.59 -78.05C-221.08 -76.64 -221.95 -75.64 -223.59 -75.49C-230.8 -74.96 -237.05 -74.55 -244.3 -74.75C-244.59 -74.76 -244.86 -74.65 -245.06 -74.45C-248.11 -71.38 -249.66 -69.24 -251.98 -64.78C-252.04 -64.67 -252.15 -64.61 -252.3 -64.6C-252.4 -64.61 -252.43 -64.68 -252.44 -64.75C-252.41 -65.69 -252.16 -73.24 -252.13 -74.18C-252.11 -74.69 -252.53 -75.18 -253.03 -75.23C-254.73 -75.39 -256.41 -75.6 -258.09 -75.85C-258.82 -75.96 -259.09 -76.16 -259.29 -76.46C-259.63 -77.28 -259.62 -77.79 -259.65 -78.59C-259.81 -83.36 -259.89 -87.53 -259.16 -91.69C-259.09 -92.3 -258.86 -92.93 -258.62 -93.45C-258.21 -94.08 -257.6 -94.18 -256.97 -94.35C-249.02 -96.55 -241.23 -98.19 -233.91 -98.19C-230.31 -98.06 -226.54 -97.7 -223.55 -96.92C-222.2 -96.55 -221 -96.2 -220.24 -95.58C-218.98 -94.24 -219.02 -93.35 -219.04 -91.91ZM-249.2 -83.3C-248.11 -83.21 -247.42 -83.65 -246.67 -84.16C-245.32 -85.33 -245.18 -87.39 -246.21 -88.87C-246.73 -89.62 -247.57 -90.08 -248.43 -90.11C-249.6 -90.1 -250.4 -89.57 -251.03 -88.83C-252.13 -87.52 -252.02 -85.73 -251.17 -84.54C-250.73 -83.92 -250.04 -83.41 -249.2 -83.3ZM-242.17 -85.05C-241.21 -82.85 -237.89 -82.87 -236.57 -85.11C-235.96 -86.15 -236.11 -87.32 -236.57 -88.17C-237.02 -89.02 -237.7 -89.71 -238.7 -89.87C-238.86 -89.9 -239.02 -89.91 -239.18 -89.9C-240.27 -89.87 -241.15 -89.11 -241.69 -88.3C-242.31 -87.36 -242.67 -86.19 -242.17 -85.05ZM-232.83 -86.15C-232.74 -85.28 -232.34 -84.43 -231.62 -83.84C-230.9 -83.25 -229.85 -82.99 -228.74 -83.22C-227.47 -83.48 -226.68 -84.5 -226.42 -85.49C-226.15 -86.48 -226.22 -87.49 -226.83 -88.31C-227.47 -89.17 -228.48 -89.68 -229.55 -89.7C-229.89 -89.7 -230.24 -89.67 -230.57 -89.58C-231.88 -89.23 -233 -87.88 -232.83 -86.15ZM-248.01 -85.7C-248.45 -85.31 -248.73 -85.28 -248.93 -85.3C-249.12 -85.33 -249.32 -85.47 -249.5 -85.72C-249.84 -86.2 -249.94 -86.97 -249.49 -87.53C-249.26 -87.84 -248.82 -88.04 -248.51 -88.07C-248.27 -88.07 -248.08 -87.99 -247.88 -87.71C-247.43 -87.06 -247.56 -86.09 -248.01 -85.7ZM-238.32 -86.15C-238.89 -85.17 -240.12 -85.44 -240.31 -85.86C-240.38 -86.02 -240.32 -86.67 -239.99 -87.18C-239.65 -87.69 -239.23 -87.88 -239.03 -87.85C-238.99 -87.84 -238.57 -87.6 -238.36 -87.21C-238.16 -86.83 -238.12 -86.47 -238.32 -86.15ZM-229.15 -85.21C-229.75 -85.08 -230.09 -85.21 -230.35 -85.42C-230.6 -85.62 -230.77 -85.97 -230.81 -86.34C-230.9 -87.26 -230.57 -87.47 -230.04 -87.61C-229.43 -87.76 -228.74 -87.5 -228.47 -87.1C-228.41 -87.02 -228.26 -86.46 -228.37 -86.02C-228.49 -85.58 -228.68 -85.3 -229.15 -85.21Z" id="bFj3ditpX"></path><path d="M-260.34 -94.52C-260.83 -93.73 -261 -92.94 -261.16 -92.11C-261.95 -87.68 -261.85 -83.33 -261.69 -78.52C-261.65 -77.41 -261.49 -76.11 -260.97 -75.31C-260.43 -74.51 -259.51 -74 -258.41 -73.83C-257.01 -73.62 -255.59 -73.45 -254.18 -73.31C-254.21 -72.44 -254.46 -65.48 -254.49 -64.61C-254.54 -63.92 -254.2 -63.34 -253.78 -63.01C-253.41 -62.72 -252.99 -62.6 -252.56 -62.57C-251.7 -62.5 -250.69 -62.87 -250.19 -63.82C-247.99 -68.05 -246.62 -69.91 -243.87 -72.72C-236.71 -72.54 -230.46 -72.94 -223.39 -73.46C-220.89 -73.53 -219.17 -75.57 -218.72 -77.21C-217.36 -81.44 -217.15 -86.66 -217 -91.94C-216.94 -94.04 -217.67 -96.09 -218.95 -97.18C-220.18 -98.17 -221.66 -98.53 -223.01 -98.89C-226.78 -99.75 -230.55 -100.2 -233.84 -100.23C-241.57 -100.23 -249.63 -98.49 -257.76 -96.24C-258.8 -96.03 -259.8 -95.35 -260.34 -94.52ZM-219.04 -91.91C-219.18 -86.79 -219.43 -81.82 -220.59 -78.05C-221.08 -76.64 -221.95 -75.64 -223.59 -75.49C-230.8 -74.96 -237.05 -74.55 -244.3 -74.75C-244.59 -74.76 -244.86 -74.65 -245.06 -74.45C-248.11 -71.38 -249.66 -69.24 -251.98 -64.78C-252.04 -64.67 -252.15 -64.61 -252.3 -64.6C-252.4 -64.61 -252.43 -64.68 -252.44 -64.75C-252.41 -65.69 -252.16 -73.24 -252.13 -74.18C-252.11 -74.69 -252.53 -75.18 -253.03 -75.23C-254.73 -75.39 -256.41 -75.6 -258.09 -75.85C-258.82 -75.96 -259.09 -76.16 -259.29 -76.46C-259.63 -77.28 -259.62 -77.79 -259.65 -78.59C-259.81 -83.36 -259.89 -87.53 -259.16 -91.69C-259.09 -92.3 -258.86 -92.93 -258.62 -93.45C-258.21 -94.08 -257.6 -94.18 -256.97 -94.35C-249.02 -96.55 -241.23 -98.19 -233.91 -98.19C-230.31 -98.06 -226.54 -97.7 -223.55 -96.92C-222.2 -96.55 -221 -96.2 -220.24 -95.58C-218.98 -94.24 -219.02 -93.35 -219.04 -91.91ZM-249.2 -83.3C-248.11 -83.21 -247.42 -83.65 -246.67 -84.16C-245.32 -85.33 -245.18 -87.39 -246.21 -88.87C-246.73 -89.62 -247.57 -90.08 -248.43 -90.11C-249.6 -90.1 -250.4 -89.57 -251.03 -88.83C-252.13 -87.52 -252.02 -85.73 -251.17 -84.54C-250.73 -83.92 -250.04 -83.41 -249.2 -83.3ZM-242.17 -85.05C-241.21 -82.85 -237.89 -82.87 -236.57 -85.11C-235.96 -86.15 -236.11 -87.32 -236.57 -88.17C-237.02 -89.02 -237.7 -89.71 -238.7 -89.87C-238.86 -89.9 -239.02 -89.91 -239.18 -89.9C-240.27 -89.87 -241.15 -89.11 -241.69 -88.3C-242.31 -87.36 -242.67 -86.19 -242.17 -85.05ZM-232.83 -86.15C-232.74 -85.28 -232.34 -84.43 -231.62 -83.84C-230.9 -83.25 -229.85 -82.99 -228.74 -83.22C-227.47 -83.48 -226.68 -84.5 -226.42 -85.49C-226.15 -86.48 -226.22 -87.49 -226.83 -88.31C-227.47 -89.17 -228.48 -89.68 -229.55 -89.7C-229.89 -89.7 -230.24 -89.67 -230.57 -89.58C-231.88 -89.23 -233 -87.88 -232.83 -86.15ZM-248.01 -85.7C-248.45 -85.31 -248.73 -85.28 -248.93 -85.3C-249.12 -85.33 -249.32 -85.47 -249.5 -85.72C-249.84 -86.2 -249.94 -86.97 -249.49 -87.53C-249.26 -87.84 -248.82 -88.04 -248.51 -88.07C-248.27 -88.07 -248.08 -87.99 -247.88 -87.71C-247.43 -87.06 -247.56 -86.09 -248.01 -85.7ZM-238.32 -86.15C-238.89 -85.17 -240.12 -85.44 -240.31 -85.86C-240.38 -86.02 -240.32 -86.67 -239.99 -87.18C-239.65 -87.69 -239.23 -87.88 -239.03 -87.85C-238.99 -87.84 -238.57 -87.6 -238.36 -87.21C-238.16 -86.83 -238.12 -86.47 -238.32 -86.15ZM-229.15 -85.21C-229.75 -85.08 -230.09 -85.21 -230.35 -85.42C-230.6 -85.62 -230.77 -85.97 -230.81 -86.34C-230.9 -87.26 -230.57 -87.47 -230.04 -87.61C-229.43 -87.76 -228.74 -87.5 -228.47 -87.1C-228.41 -87.02 -228.26 -86.46 -228.37 -86.02C-228.49 -85.58 -228.68 -85.3 -229.15 -85.21Z" id="f9ZMIjLPp"></path><path d="M-203.21 -97.12C-202.53 -97.12 -197.07 -97.12 -196.39 -97.12C-196.16 -97.12 -195.92 -97.03 -195.67 -96.84C-195.44 -96.67 -195.3 -96.4 -195.31 -96.11C-195.31 -95.39 -195.31 -91.76 -195.31 -85.22C-194.17 -85.22 -185.03 -85.22 -183.89 -85.22C-183.89 -91.76 -183.89 -95.39 -183.89 -96.11C-183.89 -96.39 -183.79 -96.63 -183.6 -96.83C-183.41 -97.03 -183.16 -97.13 -182.85 -97.13C-182.18 -97.13 -176.79 -97.13 -176.12 -97.13C-175.81 -97.13 -175.54 -97.05 -175.31 -96.9C-175.08 -96.74 -174.97 -96.5 -174.97 -96.16C-174.97 -92.94 -174.97 -67.22 -174.97 -64.01C-174.97 -63.67 -175.07 -63.42 -175.27 -63.25C-175.47 -63.08 -175.73 -63 -176.05 -63C-176.73 -63 -182.17 -63 -182.85 -63C-183.16 -63 -183.41 -63.08 -183.6 -63.25C-183.79 -63.42 -183.89 -63.67 -183.89 -64.01C-183.89 -64.88 -183.89 -69.23 -183.89 -77.06C-185.03 -77.06 -194.17 -77.06 -195.31 -77.06C-195.31 -69.23 -195.31 -64.88 -195.31 -64.01C-195.31 -63.69 -195.41 -63.44 -195.62 -63.26C-195.82 -63.09 -196.1 -63 -196.46 -63C-197.13 -63 -202.54 -63 -203.21 -63C-203.85 -63 -204.18 -63.3 -204.2 -63.89C-204.2 -66.04 -204.2 -76.78 -204.2 -96.11C-204.13 -96.44 -204.03 -96.68 -203.91 -96.81C-203.74 -97.02 -203.48 -97.13 -203.21 -97.12ZM-142.59 -63C-142.93 -63 -145.71 -63 -146.06 -63C-146.33 -63 -146.57 -63.05 -146.77 -63.15C-146.97 -63.25 -147.14 -63.38 -147.28 -63.55C-147.42 -63.72 -147.53 -63.92 -147.62 -64.12C-147.71 -64.34 -147.79 -64.56 -147.85 -64.79C-147.92 -65.09 -148.49 -67.44 -148.56 -67.73C-148.79 -67.26 -149.13 -66.72 -149.56 -66.11C-150.04 -65.47 -150.6 -64.9 -151.23 -64.41C-151.9 -63.88 -152.71 -63.44 -153.64 -63.08C-154.58 -62.72 -155.65 -62.54 -156.86 -62.54C-158.61 -62.54 -160.19 -62.88 -161.62 -63.55C-163.01 -64.2 -164.25 -65.14 -165.26 -66.31C-166.26 -67.47 -167.04 -68.83 -167.59 -70.39C-168.14 -71.94 -168.42 -73.6 -168.42 -75.36C-168.42 -76.87 -168.42 -88.91 -168.42 -90.41C-168.42 -91 -168.29 -91.44 -168.04 -91.74C-167.79 -92.03 -167.38 -92.18 -166.83 -92.18C-166.3 -92.18 -162.06 -92.18 -161.52 -92.18C-160.86 -92.18 -160.41 -92.07 -160.17 -91.85C-159.92 -91.63 -159.8 -91.2 -159.8 -90.55C-159.8 -89.06 -159.8 -77.09 -159.8 -75.59C-159.8 -74.93 -159.65 -74.31 -159.35 -73.72C-159.05 -73.13 -158.66 -72.61 -158.17 -72.16C-157.68 -71.7 -157.12 -71.35 -156.5 -71.09C-155.88 -70.83 -155.25 -70.7 -154.61 -70.7C-154.06 -70.7 -153.49 -70.83 -152.9 -71.09C-152.3 -71.35 -151.75 -71.7 -151.26 -72.13C-150.77 -72.57 -150.36 -73.08 -150.03 -73.67C-149.71 -74.26 -149.55 -74.89 -149.55 -75.55C-149.55 -77.04 -149.55 -88.99 -149.55 -90.48C-149.55 -90.74 -149.5 -91 -149.4 -91.27C-149.3 -91.53 -149.15 -91.73 -148.95 -91.86C-148.76 -91.99 -148.57 -92.07 -148.39 -92.12C-148.22 -92.16 -148.01 -92.19 -147.78 -92.19C-147.26 -92.19 -143.11 -92.19 -142.59 -92.19C-141.93 -92.19 -141.46 -92.02 -141.16 -91.7C-140.87 -91.38 -140.73 -90.95 -140.73 -90.42C-140.73 -87.84 -140.73 -67.27 -140.73 -64.7C-140.73 -64.41 -140.79 -64.14 -140.92 -63.89C-141.05 -63.65 -141.23 -63.46 -141.46 -63.32C-141.45 -63.33 -141.41 -63.35 -141.33 -63.39C-141.6 -63.21 -141.81 -63.1 -141.96 -63.07C-142.16 -63.02 -142.38 -63 -142.59 -63ZM-117.65 -63.89C-118.25 -63.48 -118.9 -63.14 -119.58 -62.87C-120.3 -62.6 -121.05 -62.46 -121.81 -62.47C-123.9 -62.47 -125.82 -62.86 -127.57 -63.64C-129.28 -64.39 -130.82 -65.48 -132.1 -66.85C-133.36 -68.2 -134.35 -69.8 -135.06 -71.64C-135.77 -73.48 -136.13 -75.45 -136.13 -77.57C-136.13 -79.7 -135.77 -81.68 -135.06 -83.51C-134.35 -85.34 -133.36 -86.93 -132.1 -88.29C-130.82 -89.65 -129.28 -90.74 -127.57 -91.48C-125.82 -92.26 -123.9 -92.64 -121.81 -92.64C-120.97 -92.64 -120.2 -92.52 -119.5 -92.28C-118.83 -92.04 -118.19 -91.73 -117.6 -91.33C-117.02 -90.95 -116.49 -90.52 -116.01 -90.04C-115.53 -89.55 -115.07 -89.08 -114.64 -88.62C-114.64 -89.67 -114.64 -98.07 -114.64 -99.12C-114.64 -99.61 -114.49 -100.03 -114.2 -100.36C-113.9 -100.7 -113.45 -100.87 -112.85 -100.87C-112.33 -100.87 -108.2 -100.87 -107.68 -100.87C-107.48 -100.87 -107.27 -100.83 -107.05 -100.74C-106.83 -100.66 -106.62 -100.54 -106.44 -100.39C-106.26 -100.23 -106.11 -100.05 -105.99 -99.84C-105.88 -99.62 -105.82 -99.38 -105.82 -99.12C-105.82 -95.69 -105.82 -68.2 -105.82 -64.77C-105.82 -63.59 -106.44 -63 -107.68 -63C-108.13 -63 -111.73 -63 -112.18 -63C-112.49 -63 -112.73 -63.04 -112.9 -63.11C-113.06 -63.19 -113.21 -63.3 -113.32 -63.45C-113.45 -63.62 -113.56 -63.8 -113.63 -64C-113.74 -64.26 -113.86 -64.51 -113.98 -64.77C-114.02 -64.89 -114.24 -65.49 -114.64 -66.56C-115.22 -65.99 -115.68 -65.54 -116.01 -65.23C-116.51 -64.75 -117.06 -64.31 -117.65 -63.89ZM-126.04 -72.44C-125.45 -71.8 -124.74 -71.28 -123.94 -70.92C-123.12 -70.54 -122.21 -70.35 -121.22 -70.35C-120.24 -70.35 -119.31 -70.53 -118.45 -70.88C-117.61 -71.22 -116.84 -71.71 -116.18 -72.34C-115.53 -72.97 -115.01 -73.71 -114.63 -74.53C-114.24 -75.38 -114.02 -76.28 -113.98 -77.25C-113.98 -77.28 -113.98 -77.54 -113.98 -77.57C-113.97 -78.53 -114.16 -79.48 -114.53 -80.37C-114.89 -81.24 -115.4 -82.04 -116.06 -82.72C-116.71 -83.39 -117.49 -83.94 -118.35 -84.31C-119.26 -84.71 -120.23 -84.91 -121.22 -84.9C-122.21 -84.9 -123.12 -84.7 -123.94 -84.31C-124.76 -83.92 -125.46 -83.39 -126.04 -82.72C-126.63 -82.03 -127.09 -81.23 -127.39 -80.37C-127.7 -79.47 -127.86 -78.52 -127.86 -77.57C-127.87 -76.6 -127.71 -75.64 -127.39 -74.73C-127.07 -73.85 -126.62 -73.09 -126.04 -72.44ZM-82.15 -63.89C-82.75 -63.48 -83.4 -63.14 -84.08 -62.87C-84.79 -62.6 -85.55 -62.46 -86.31 -62.47C-88.39 -62.47 -90.31 -62.86 -92.06 -63.64C-93.78 -64.39 -95.32 -65.48 -96.59 -66.85C-97.86 -68.2 -98.84 -69.8 -99.56 -71.64C-100.27 -73.48 -100.63 -75.45 -100.63 -77.57C-100.63 -79.7 -100.27 -81.68 -99.56 -83.51C-98.84 -85.34 -97.86 -86.93 -96.59 -88.29C-95.32 -89.65 -93.78 -90.74 -92.06 -91.48C-90.31 -92.26 -88.39 -92.64 -86.31 -92.64C-85.47 -92.64 -84.7 -92.52 -84 -92.28C-83.33 -92.04 -82.69 -91.73 -82.09 -91.33C-81.52 -90.95 -80.99 -90.52 -80.51 -90.04C-80.02 -89.55 -79.57 -89.08 -79.14 -88.62C-79.14 -89.67 -79.14 -98.07 -79.14 -99.12C-79.14 -99.61 -78.99 -100.03 -78.69 -100.36C-78.39 -100.7 -77.94 -100.87 -77.35 -100.87C-76.83 -100.87 -72.69 -100.87 -72.18 -100.87C-71.98 -100.87 -71.77 -100.83 -71.54 -100.74C-71.32 -100.66 -71.12 -100.54 -70.93 -100.39C-70.75 -100.23 -70.6 -100.05 -70.49 -99.84C-70.37 -99.62 -70.31 -99.38 -70.31 -99.12C-70.31 -95.69 -70.31 -68.2 -70.31 -64.77C-70.31 -63.59 -70.93 -63 -72.18 -63C-72.63 -63 -76.23 -63 -76.68 -63C-76.99 -63 -77.22 -63.04 -77.39 -63.11C-77.56 -63.19 -77.7 -63.3 -77.82 -63.45C-77.95 -63.62 -78.05 -63.8 -78.13 -64C-78.24 -64.26 -78.35 -64.51 -78.47 -64.77C-78.52 -64.89 -78.74 -65.49 -79.14 -66.56C-79.72 -65.99 -80.17 -65.54 -80.51 -65.23C-81 -64.75 -81.55 -64.31 -82.15 -63.89ZM-90.54 -72.44C-89.95 -71.8 -89.23 -71.28 -88.43 -70.92C-87.61 -70.54 -86.71 -70.35 -85.71 -70.35C-84.73 -70.35 -83.81 -70.53 -82.94 -70.88C-82.1 -71.22 -81.33 -71.71 -80.68 -72.34C-80.03 -72.97 -79.5 -73.71 -79.13 -74.53C-78.74 -75.38 -78.52 -76.28 -78.47 -77.25C-78.47 -77.28 -78.47 -77.54 -78.47 -77.57C-78.47 -78.53 -78.66 -79.48 -79.02 -80.37C-79.38 -81.24 -79.9 -82.04 -80.55 -82.72C-81.21 -83.39 -81.99 -83.94 -82.85 -84.31C-83.75 -84.71 -84.73 -84.91 -85.71 -84.9C-86.71 -84.9 -87.61 -84.7 -88.43 -84.31C-89.25 -83.92 -89.95 -83.39 -90.54 -82.72C-91.13 -82.03 -91.58 -81.23 -91.88 -80.37C-92.2 -79.47 -92.36 -78.52 -92.35 -77.57C-92.36 -76.6 -92.2 -75.64 -91.88 -74.73C-91.57 -73.85 -91.12 -73.09 -90.54 -72.44ZM-62.57 -100.85C-62.01 -100.85 -57.5 -100.85 -56.94 -100.85C-56.78 -100.85 -56.62 -100.81 -56.46 -100.72C-56.28 -100.63 -56.12 -100.51 -55.98 -100.37C-55.84 -100.21 -55.72 -100.03 -55.62 -99.81C-55.52 -99.6 -55.47 -99.36 -55.47 -99.1C-55.47 -95.67 -55.47 -68.2 -55.47 -64.77C-55.47 -64.19 -55.63 -63.75 -55.96 -63.45C-56.29 -63.15 -56.72 -63 -57.24 -63C-57.77 -63 -62.04 -63 -62.57 -63C-63.17 -63 -63.59 -63.15 -63.83 -63.45C-64.08 -63.75 -64.2 -64.19 -64.2 -64.77C-64.2 -67.06 -64.2 -78.5 -64.2 -99.1C-64.12 -99.7 -64 -100.12 -63.83 -100.34C-63.59 -100.68 -63.17 -100.85 -62.57 -100.85ZM-35.4 -62.54C-37.5 -62.54 -39.49 -62.92 -41.36 -63.69C-43.18 -64.43 -44.85 -65.51 -46.27 -66.87C-47.69 -68.24 -48.83 -69.86 -49.63 -71.66C-50.46 -73.5 -50.87 -75.5 -50.87 -77.66C-50.87 -79.01 -50.71 -80.31 -50.38 -81.58C-50.06 -82.82 -49.59 -84.01 -48.98 -85.13C-48.37 -86.23 -47.63 -87.26 -46.77 -88.17C-45.91 -89.09 -44.93 -89.89 -43.86 -90.55C-42.77 -91.22 -41.6 -91.74 -40.37 -92.09C-39.08 -92.47 -37.74 -92.65 -36.39 -92.64C-35.12 -92.64 -33.89 -92.47 -32.69 -92.14C-31.5 -91.8 -30.38 -91.33 -29.33 -90.71C-28.28 -90.1 -27.32 -89.36 -26.44 -88.51C-25.58 -87.66 -24.82 -86.72 -24.19 -85.69C-23.56 -84.67 -23.07 -83.58 -22.73 -82.43C-22.39 -81.27 -22.21 -80.08 -22.21 -78.86C-22.21 -78.06 -22.23 -77.41 -22.25 -76.9C-22.27 -76.4 -22.39 -75.99 -22.61 -75.7C-22.82 -75.4 -23.18 -75.19 -23.67 -75.08C-24.17 -74.96 -24.9 -74.9 -25.87 -74.9C-27.52 -74.9 -40.76 -74.9 -42.41 -74.9C-42.26 -73.92 -41.95 -73.1 -41.48 -72.44C-41.05 -71.82 -40.5 -71.28 -39.86 -70.87C-39.25 -70.48 -38.6 -70.2 -37.91 -70.03C-37.27 -69.87 -36.62 -69.78 -35.96 -69.78C-35.4 -69.78 -34.84 -69.84 -34.26 -69.95C-33.68 -70.06 -33.12 -70.22 -32.57 -70.41C-32.05 -70.59 -31.55 -70.81 -31.07 -71.08C-30.62 -71.33 -30.26 -71.59 -29.98 -71.87C-29.74 -72.07 -29.53 -72.22 -29.35 -72.32C-29.17 -72.42 -28.99 -72.47 -28.79 -72.47C-28.59 -72.47 -28.38 -72.4 -28.18 -72.26C-27.93 -72.08 -27.69 -71.88 -27.48 -71.66C-27.23 -71.39 -25.28 -69.18 -25.04 -68.9C-24.87 -68.7 -24.76 -68.52 -24.72 -68.37C-24.67 -68.2 -24.65 -68.04 -24.65 -67.87C-24.65 -67.56 -24.73 -67.3 -24.9 -67.08C-25.07 -66.85 -25.27 -66.66 -25.5 -66.49C-26.83 -65.26 -28.37 -64.28 -30.05 -63.58C-31.75 -62.89 -33.57 -62.53 -35.4 -62.54ZM-39.86 -84.32C-40.35 -83.93 -40.79 -83.47 -41.18 -82.97C-41.56 -82.49 -41.88 -81.98 -42.14 -81.43C-40.96 -81.43 -31.57 -81.43 -30.4 -81.43C-30.7 -82.01 -31.05 -82.56 -31.44 -83.08C-31.81 -83.58 -32.24 -84.03 -32.73 -84.42C-33.22 -84.81 -33.78 -85.11 -34.38 -85.31C-35 -85.53 -35.73 -85.63 -36.55 -85.63C-37.15 -85.63 -37.73 -85.52 -38.29 -85.28C-38.86 -85.04 -39.39 -84.72 -39.86 -84.32Z" id="c1GcCPuKhm"></path><path d="M-203.21 -97.12C-202.53 -97.12 -197.07 -97.12 -196.39 -97.12C-196.16 -97.12 -195.92 -97.03 -195.67 -96.84C-195.44 -96.67 -195.3 -96.4 -195.31 -96.11C-195.31 -95.39 -195.31 -91.76 -195.31 -85.22C-194.17 -85.22 -185.03 -85.22 -183.89 -85.22C-183.89 -91.76 -183.89 -95.39 -183.89 -96.11C-183.89 -96.39 -183.79 -96.63 -183.6 -96.83C-183.41 -97.03 -183.16 -97.13 -182.85 -97.13C-182.18 -97.13 -176.79 -97.13 -176.12 -97.13C-175.81 -97.13 -175.54 -97.05 -175.31 -96.9C-175.08 -96.74 -174.97 -96.5 -174.97 -96.16C-174.97 -92.94 -174.97 -67.22 -174.97 -64.01C-174.97 -63.67 -175.07 -63.42 -175.27 -63.25C-175.47 -63.08 -175.73 -63 -176.05 -63C-176.73 -63 -182.17 -63 -182.85 -63C-183.16 -63 -183.41 -63.08 -183.6 -63.25C-183.79 -63.42 -183.89 -63.67 -183.89 -64.01C-183.89 -64.88 -183.89 -69.23 -183.89 -77.06C-185.03 -77.06 -194.17 -77.06 -195.31 -77.06C-195.31 -69.23 -195.31 -64.88 -195.31 -64.01C-195.31 -63.69 -195.41 -63.44 -195.62 -63.26C-195.82 -63.09 -196.1 -63 -196.46 -63C-197.13 -63 -202.54 -63 -203.21 -63C-203.85 -63 -204.18 -63.3 -204.2 -63.89C-204.2 -66.04 -204.2 -76.78 -204.2 -96.11C-204.13 -96.44 -204.03 -96.68 -203.91 -96.81C-203.74 -97.02 -203.48 -97.13 -203.21 -97.12ZM-142.59 -63C-142.93 -63 -145.71 -63 -146.06 -63C-146.33 -63 -146.57 -63.05 -146.77 -63.15C-146.97 -63.25 -147.14 -63.38 -147.28 -63.55C-147.42 -63.72 -147.53 -63.92 -147.62 -64.12C-147.71 -64.34 -147.79 -64.56 -147.85 -64.79C-147.92 -65.09 -148.49 -67.44 -148.56 -67.73C-148.79 -67.26 -149.13 -66.72 -149.56 -66.11C-150.04 -65.47 -150.6 -64.9 -151.23 -64.41C-151.9 -63.88 -152.71 -63.44 -153.64 -63.08C-154.58 -62.72 -155.65 -62.54 -156.86 -62.54C-158.61 -62.54 -160.19 -62.88 -161.62 -63.55C-163.01 -64.2 -164.25 -65.14 -165.26 -66.31C-166.26 -67.47 -167.04 -68.83 -167.59 -70.39C-168.14 -71.94 -168.42 -73.6 -168.42 -75.36C-168.42 -76.87 -168.42 -88.91 -168.42 -90.41C-168.42 -91 -168.29 -91.44 -168.04 -91.74C-167.79 -92.03 -167.38 -92.18 -166.83 -92.18C-166.3 -92.18 -162.06 -92.18 -161.52 -92.18C-160.86 -92.18 -160.41 -92.07 -160.17 -91.85C-159.92 -91.63 -159.8 -91.2 -159.8 -90.55C-159.8 -89.06 -159.8 -77.09 -159.8 -75.59C-159.8 -74.93 -159.65 -74.31 -159.35 -73.72C-159.05 -73.13 -158.66 -72.61 -158.17 -72.16C-157.68 -71.7 -157.12 -71.35 -156.5 -71.09C-155.88 -70.83 -155.25 -70.7 -154.61 -70.7C-154.06 -70.7 -153.49 -70.83 -152.9 -71.09C-152.3 -71.35 -151.75 -71.7 -151.26 -72.13C-150.77 -72.57 -150.36 -73.08 -150.03 -73.67C-149.71 -74.26 -149.55 -74.89 -149.55 -75.55C-149.55 -77.04 -149.55 -88.99 -149.55 -90.48C-149.55 -90.74 -149.5 -91 -149.4 -91.27C-149.3 -91.53 -149.15 -91.73 -148.95 -91.86C-148.76 -91.99 -148.57 -92.07 -148.39 -92.12C-148.22 -92.16 -148.01 -92.19 -147.78 -92.19C-147.26 -92.19 -143.11 -92.19 -142.59 -92.19C-141.93 -92.19 -141.46 -92.02 -141.16 -91.7C-140.87 -91.38 -140.73 -90.95 -140.73 -90.42C-140.73 -87.84 -140.73 -67.27 -140.73 -64.7C-140.73 -64.41 -140.79 -64.14 -140.92 -63.89C-141.05 -63.65 -141.23 -63.46 -141.46 -63.32C-141.45 -63.33 -141.41 -63.35 -141.33 -63.39C-141.6 -63.21 -141.81 -63.1 -141.96 -63.07C-142.16 -63.02 -142.38 -63 -142.59 -63ZM-117.65 -63.89C-118.25 -63.48 -118.9 -63.14 -119.58 -62.87C-120.3 -62.6 -121.05 -62.46 -121.81 -62.47C-123.9 -62.47 -125.82 -62.86 -127.57 -63.64C-129.28 -64.39 -130.82 -65.48 -132.1 -66.85C-133.36 -68.2 -134.35 -69.8 -135.06 -71.64C-135.77 -73.48 -136.13 -75.45 -136.13 -77.57C-136.13 -79.7 -135.77 -81.68 -135.06 -83.51C-134.35 -85.34 -133.36 -86.93 -132.1 -88.29C-130.82 -89.65 -129.28 -90.74 -127.57 -91.48C-125.82 -92.26 -123.9 -92.64 -121.81 -92.64C-120.97 -92.64 -120.2 -92.52 -119.5 -92.28C-118.83 -92.04 -118.19 -91.73 -117.6 -91.33C-117.02 -90.95 -116.49 -90.52 -116.01 -90.04C-115.53 -89.55 -115.07 -89.08 -114.64 -88.62C-114.64 -89.67 -114.64 -98.07 -114.64 -99.12C-114.64 -99.61 -114.49 -100.03 -114.2 -100.36C-113.9 -100.7 -113.45 -100.87 -112.85 -100.87C-112.33 -100.87 -108.2 -100.87 -107.68 -100.87C-107.48 -100.87 -107.27 -100.83 -107.05 -100.74C-106.83 -100.66 -106.62 -100.54 -106.44 -100.39C-106.26 -100.23 -106.11 -100.05 -105.99 -99.84C-105.88 -99.62 -105.82 -99.38 -105.82 -99.12C-105.82 -95.69 -105.82 -68.2 -105.82 -64.77C-105.82 -63.59 -106.44 -63 -107.68 -63C-108.13 -63 -111.73 -63 -112.18 -63C-112.49 -63 -112.73 -63.04 -112.9 -63.11C-113.06 -63.19 -113.21 -63.3 -113.32 -63.45C-113.45 -63.62 -113.56 -63.8 -113.63 -64C-113.74 -64.26 -113.86 -64.51 -113.98 -64.77C-114.02 -64.89 -114.24 -65.49 -114.64 -66.56C-115.22 -65.99 -115.68 -65.54 -116.01 -65.23C-116.51 -64.75 -117.06 -64.31 -117.65 -63.89ZM-126.04 -72.44C-125.45 -71.8 -124.74 -71.28 -123.94 -70.92C-123.12 -70.54 -122.21 -70.35 -121.22 -70.35C-120.24 -70.35 -119.31 -70.53 -118.45 -70.88C-117.61 -71.22 -116.84 -71.71 -116.18 -72.34C-115.53 -72.97 -115.01 -73.71 -114.63 -74.53C-114.24 -75.38 -114.02 -76.28 -113.98 -77.25C-113.98 -77.28 -113.98 -77.54 -113.98 -77.57C-113.97 -78.53 -114.16 -79.48 -114.53 -80.37C-114.89 -81.24 -115.4 -82.04 -116.06 -82.72C-116.71 -83.39 -117.49 -83.94 -118.35 -84.31C-119.26 -84.71 -120.23 -84.91 -121.22 -84.9C-122.21 -84.9 -123.12 -84.7 -123.94 -84.31C-124.76 -83.92 -125.46 -83.39 -126.04 -82.72C-126.63 -82.03 -127.09 -81.23 -127.39 -80.37C-127.7 -79.47 -127.86 -78.52 -127.86 -77.57C-127.87 -76.6 -127.71 -75.64 -127.39 -74.73C-127.07 -73.85 -126.62 -73.09 -126.04 -72.44ZM-82.15 -63.89C-82.75 -63.48 -83.4 -63.14 -84.08 -62.87C-84.79 -62.6 -85.55 -62.46 -86.31 -62.47C-88.39 -62.47 -90.31 -62.86 -92.06 -63.64C-93.78 -64.39 -95.32 -65.48 -96.59 -66.85C-97.86 -68.2 -98.84 -69.8 -99.56 -71.64C-100.27 -73.48 -100.63 -75.45 -100.63 -77.57C-100.63 -79.7 -100.27 -81.68 -99.56 -83.51C-98.84 -85.34 -97.86 -86.93 -96.59 -88.29C-95.32 -89.65 -93.78 -90.74 -92.06 -91.48C-90.31 -92.26 -88.39 -92.64 -86.31 -92.64C-85.47 -92.64 -84.7 -92.52 -84 -92.28C-83.33 -92.04 -82.69 -91.73 -82.09 -91.33C-81.52 -90.95 -80.99 -90.52 -80.51 -90.04C-80.02 -89.55 -79.57 -89.08 -79.14 -88.62C-79.14 -89.67 -79.14 -98.07 -79.14 -99.12C-79.14 -99.61 -78.99 -100.03 -78.69 -100.36C-78.39 -100.7 -77.94 -100.87 -77.35 -100.87C-76.83 -100.87 -72.69 -100.87 -72.18 -100.87C-71.98 -100.87 -71.77 -100.83 -71.54 -100.74C-71.32 -100.66 -71.12 -100.54 -70.93 -100.39C-70.75 -100.23 -70.6 -100.05 -70.49 -99.84C-70.37 -99.62 -70.31 -99.38 -70.31 -99.12C-70.31 -95.69 -70.31 -68.2 -70.31 -64.77C-70.31 -63.59 -70.93 -63 -72.18 -63C-72.63 -63 -76.23 -63 -76.68 -63C-76.99 -63 -77.22 -63.04 -77.39 -63.11C-77.56 -63.19 -77.7 -63.3 -77.82 -63.45C-77.95 -63.62 -78.05 -63.8 -78.13 -64C-78.24 -64.26 -78.35 -64.51 -78.47 -64.77C-78.52 -64.89 -78.74 -65.49 -79.14 -66.56C-79.72 -65.99 -80.17 -65.54 -80.51 -65.23C-81 -64.75 -81.55 -64.31 -82.15 -63.89ZM-90.54 -72.44C-89.95 -71.8 -89.23 -71.28 -88.43 -70.92C-87.61 -70.54 -86.71 -70.35 -85.71 -70.35C-84.73 -70.35 -83.81 -70.53 -82.94 -70.88C-82.1 -71.22 -81.33 -71.71 -80.68 -72.34C-80.03 -72.97 -79.5 -73.71 -79.13 -74.53C-78.74 -75.38 -78.52 -76.28 -78.47 -77.25C-78.47 -77.28 -78.47 -77.54 -78.47 -77.57C-78.47 -78.53 -78.66 -79.48 -79.02 -80.37C-79.38 -81.24 -79.9 -82.04 -80.55 -82.72C-81.21 -83.39 -81.99 -83.94 -82.85 -84.31C-83.75 -84.71 -84.73 -84.91 -85.71 -84.9C-86.71 -84.9 -87.61 -84.7 -88.43 -84.31C-89.25 -83.92 -89.95 -83.39 -90.54 -82.72C-91.13 -82.03 -91.58 -81.23 -91.88 -80.37C-92.2 -79.47 -92.36 -78.52 -92.35 -77.57C-92.36 -76.6 -92.2 -75.64 -91.88 -74.73C-91.57 -73.85 -91.12 -73.09 -90.54 -72.44ZM-62.57 -100.85C-62.01 -100.85 -57.5 -100.85 -56.94 -100.85C-56.78 -100.85 -56.62 -100.81 -56.46 -100.72C-56.28 -100.63 -56.12 -100.51 -55.98 -100.37C-55.84 -100.21 -55.72 -100.03 -55.62 -99.81C-55.52 -99.6 -55.47 -99.36 -55.47 -99.1C-55.47 -95.67 -55.47 -68.2 -55.47 -64.77C-55.47 -64.19 -55.63 -63.75 -55.96 -63.45C-56.29 -63.15 -56.72 -63 -57.24 -63C-57.77 -63 -62.04 -63 -62.57 -63C-63.17 -63 -63.59 -63.15 -63.83 -63.45C-64.08 -63.75 -64.2 -64.19 -64.2 -64.77C-64.2 -67.06 -64.2 -78.5 -64.2 -99.1C-64.12 -99.7 -64 -100.12 -63.83 -100.34C-63.59 -100.68 -63.17 -100.85 -62.57 -100.85ZM-35.4 -62.54C-37.5 -62.54 -39.49 -62.92 -41.36 -63.69C-43.18 -64.43 -44.85 -65.51 -46.27 -66.87C-47.69 -68.24 -48.83 -69.86 -49.63 -71.66C-50.46 -73.5 -50.87 -75.5 -50.87 -77.66C-50.87 -79.01 -50.71 -80.31 -50.38 -81.58C-50.06 -82.82 -49.59 -84.01 -48.98 -85.13C-48.37 -86.23 -47.63 -87.26 -46.77 -88.17C-45.91 -89.09 -44.93 -89.89 -43.86 -90.55C-42.77 -91.22 -41.6 -91.74 -40.37 -92.09C-39.08 -92.47 -37.74 -92.65 -36.39 -92.64C-35.12 -92.64 -33.89 -92.47 -32.69 -92.14C-31.5 -91.8 -30.38 -91.33 -29.33 -90.71C-28.28 -90.1 -27.32 -89.36 -26.44 -88.51C-25.58 -87.66 -24.82 -86.72 -24.19 -85.69C-23.56 -84.67 -23.07 -83.58 -22.73 -82.43C-22.39 -81.27 -22.21 -80.08 -22.21 -78.86C-22.21 -78.06 -22.23 -77.41 -22.25 -76.9C-22.27 -76.4 -22.39 -75.99 -22.61 -75.7C-22.82 -75.4 -23.18 -75.19 -23.67 -75.08C-24.17 -74.96 -24.9 -74.9 -25.87 -74.9C-27.52 -74.9 -40.76 -74.9 -42.41 -74.9C-42.26 -73.92 -41.95 -73.1 -41.48 -72.44C-41.05 -71.82 -40.5 -71.28 -39.86 -70.87C-39.25 -70.48 -38.6 -70.2 -37.91 -70.03C-37.27 -69.87 -36.62 -69.78 -35.96 -69.78C-35.4 -69.78 -34.84 -69.84 -34.26 -69.95C-33.68 -70.06 -33.12 -70.22 -32.57 -70.41C-32.05 -70.59 -31.55 -70.81 -31.07 -71.08C-30.62 -71.33 -30.26 -71.59 -29.98 -71.87C-29.74 -72.07 -29.53 -72.22 -29.35 -72.32C-29.17 -72.42 -28.99 -72.47 -28.79 -72.47C-28.59 -72.47 -28.38 -72.4 -28.18 -72.26C-27.93 -72.08 -27.69 -71.88 -27.48 -71.66C-27.23 -71.39 -25.28 -69.18 -25.04 -68.9C-24.87 -68.7 -24.76 -68.52 -24.72 -68.37C-24.67 -68.2 -24.65 -68.04 -24.65 -67.87C-24.65 -67.56 -24.73 -67.3 -24.9 -67.08C-25.07 -66.85 -25.27 -66.66 -25.5 -66.49C-26.83 -65.26 -28.37 -64.28 -30.05 -63.58C-31.75 -62.89 -33.57 -62.53 -35.4 -62.54ZM-39.86 -84.32C-40.35 -83.93 -40.79 -83.47 -41.18 -82.97C-41.56 -82.49 -41.88 -81.98 -42.14 -81.43C-40.96 -81.43 -31.57 -81.43 -30.4 -81.43C-30.7 -82.01 -31.05 -82.56 -31.44 -83.08C-31.81 -83.58 -32.24 -84.03 -32.73 -84.42C-33.22 -84.81 -33.78 -85.11 -34.38 -85.31C-35 -85.53 -35.73 -85.63 -36.55 -85.63C-37.15 -85.63 -37.73 -85.52 -38.29 -85.28C-38.86 -85.04 -39.39 -84.72 -39.86 -84.32Z" id="bzaN9hfI6"></path><path d="M4.05 4.87C3.01 5.08 2.01 5.76 1.47 6.59C0.98 7.38 0.81 8.17 0.65 9C-0.14 13.43 -0.04 17.78 0.12 22.59C0.16 23.7 0.32 25 0.84 25.8C1.38 26.6 2.3 27.11 3.4 27.28C4.8 27.49 6.22 27.66 7.63 27.8C7.6 28.67 7.35 35.63 7.32 36.5C7.27 37.19 7.61 37.77 8.03 38.1C8.4 38.39 8.82 38.51 9.25 38.54C10.11 38.61 11.12 38.24 11.62 37.29C13.82 33.06 15.19 31.2 17.94 28.39C25.1 28.57 31.35 28.17 38.42 27.65C40.92 27.58 42.64 25.54 43.09 23.9C44.45 19.67 44.66 14.45 44.81 9.17C44.87 7.07 44.14 5.02 42.86 3.93C41.63 2.94 40.15 2.58 38.8 2.22C35.03 1.36 31.26 0.91 27.97 0.88C20.24 0.88 12.18 2.62 4.05 4.87ZM41.57 5.53C42.83 6.87 42.79 7.76 42.77 9.2C42.63 14.32 42.38 19.29 41.22 23.06C40.73 24.47 39.86 25.47 38.22 25.62C31.01 26.15 24.76 26.56 17.51 26.36C17.22 26.35 16.95 26.46 16.75 26.66C13.7 29.73 12.15 31.87 9.83 36.33C9.77 36.44 9.66 36.5 9.51 36.51C9.41 36.5 9.38 36.43 9.37 36.36C9.4 35.42 9.65 27.87 9.68 26.93C9.7 26.42 9.28 25.93 8.78 25.88C7.08 25.72 5.4 25.51 3.72 25.26C2.99 25.15 2.72 24.95 2.52 24.65C2.18 23.83 2.19 23.32 2.16 22.52C2 17.75 1.92 13.58 2.65 9.42C2.72 8.81 2.95 8.18 3.19 7.66C3.6 7.03 4.21 6.93 4.84 6.76C12.79 4.56 20.58 2.92 27.9 2.92C31.5 3.05 35.27 3.41 38.26 4.19C39.61 4.56 40.81 4.91 41.57 5.53ZM10.64 16.57C11.08 17.19 11.77 17.7 12.61 17.81C13.7 17.9 14.39 17.46 15.14 16.95C16.49 15.78 16.63 13.72 15.6 12.24C15.08 11.49 14.24 11.03 13.38 11C12.21 11.01 11.41 11.54 10.78 12.28C9.68 13.59 9.79 15.38 10.64 16.57ZM20.12 12.81C19.5 13.75 19.14 14.92 19.64 16.06C20.6 18.26 23.92 18.24 25.24 16C25.85 14.96 25.7 13.79 25.24 12.94C24.79 12.09 24.11 11.4 23.11 11.24C22.95 11.21 22.79 11.2 22.63 11.21C21.54 11.24 20.66 12 20.12 12.81ZM31.24 11.53C29.93 11.88 28.81 13.23 28.98 14.96C29.07 15.83 29.47 16.68 30.19 17.27C30.91 17.86 31.96 18.12 33.07 17.89C34.34 17.63 35.13 16.61 35.39 15.62C35.66 14.63 35.59 13.62 34.98 12.8C34.34 11.94 33.33 11.43 32.26 11.41C31.92 11.41 31.57 11.44 31.24 11.53ZM13.93 13.4C14.38 14.05 14.25 15.02 13.8 15.41C13.36 15.8 13.08 15.83 12.88 15.81C12.69 15.78 12.49 15.64 12.31 15.39C11.97 14.91 11.87 14.14 12.32 13.58C12.55 13.27 12.99 13.07 13.3 13.04C13.54 13.04 13.73 13.12 13.93 13.4ZM23.45 13.9C23.65 14.28 23.69 14.64 23.49 14.96C22.92 15.94 21.69 15.67 21.5 15.25C21.43 15.09 21.49 14.44 21.82 13.93C22.16 13.42 22.58 13.23 22.78 13.26C22.82 13.27 23.24 13.51 23.45 13.9ZM33.44 15.09C33.32 15.53 33.13 15.81 32.66 15.9C32.06 16.03 31.72 15.9 31.46 15.69C31.21 15.49 31.04 15.14 31 14.77C30.91 13.85 31.24 13.64 31.77 13.5C32.38 13.35 33.07 13.61 33.34 14.01C33.4 14.09 33.55 14.65 33.44 15.09Z" id="chdjyl8JV"></path><path d="M57.9 4.3C58.07 4.09 58.33 3.98 58.6 3.99C59.28 3.99 64.74 3.99 65.42 3.99C65.65 3.99 65.89 4.08 66.14 4.27C66.37 4.44 66.51 4.71 66.5 5C66.5 5.72 66.5 9.35 66.5 15.89L77.92 15.89C77.92 9.35 77.92 5.72 77.92 5C77.92 4.72 78.02 4.48 78.21 4.28C78.4 4.08 78.65 3.98 78.96 3.98C79.63 3.98 85.02 3.98 85.69 3.98C86 3.98 86.27 4.06 86.5 4.21C86.73 4.37 86.84 4.61 86.84 4.95C86.84 8.17 86.84 33.89 86.84 37.1C86.84 37.44 86.74 37.69 86.54 37.86C86.34 38.03 86.08 38.11 85.76 38.11C85.08 38.11 79.64 38.11 78.96 38.11C78.65 38.11 78.4 38.03 78.21 37.86C78.02 37.69 77.92 37.44 77.92 37.1C77.92 36.23 77.92 31.88 77.92 24.05L66.5 24.05C66.5 31.88 66.5 36.23 66.5 37.1C66.5 37.42 66.4 37.67 66.19 37.85C65.99 38.02 65.71 38.11 65.35 38.11C64.68 38.11 59.27 38.11 58.6 38.11C57.96 38.11 57.63 37.81 57.61 37.22C57.61 35.07 57.61 24.33 57.61 5C57.68 4.67 57.78 4.43 57.9 4.3ZM119.85 38.04C119.65 38.09 119.43 38.11 119.22 38.11C118.88 38.11 116.1 38.11 115.75 38.11C115.48 38.11 115.24 38.06 115.04 37.96C114.84 37.86 114.67 37.73 114.53 37.56C114.39 37.39 114.28 37.19 114.19 36.99C114.1 36.77 114.02 36.55 113.96 36.32C113.89 36.02 113.32 33.67 113.25 33.38C113.02 33.85 112.68 34.39 112.25 35C111.77 35.64 111.21 36.21 110.58 36.7C109.91 37.23 109.1 37.67 108.17 38.03C107.23 38.39 106.16 38.57 104.95 38.57C103.2 38.57 101.62 38.23 100.19 37.56C98.8 36.91 97.56 35.97 96.55 34.8C95.55 33.64 94.77 32.28 94.22 30.72C93.67 29.17 93.39 27.51 93.39 25.75C93.39 24.24 93.39 12.2 93.39 10.7C93.39 10.11 93.52 9.67 93.77 9.37C94.02 9.08 94.43 8.93 94.98 8.93C95.51 8.93 99.75 8.93 100.29 8.93C100.95 8.93 101.4 9.04 101.64 9.26C101.89 9.48 102.01 9.91 102.01 10.56C102.01 12.05 102.01 24.02 102.01 25.52C102.01 26.18 102.16 26.8 102.46 27.39C102.76 27.98 103.15 28.5 103.64 28.95C104.13 29.41 104.69 29.76 105.31 30.02C105.93 30.28 106.56 30.41 107.2 30.41C107.75 30.41 108.32 30.28 108.91 30.02C109.51 29.76 110.06 29.41 110.55 28.98C111.04 28.54 111.45 28.03 111.78 27.44C112.1 26.85 112.26 26.22 112.26 25.56C112.26 24.07 112.26 12.12 112.26 10.63C112.26 10.37 112.31 10.11 112.41 9.84C112.51 9.58 112.66 9.38 112.86 9.25C113.05 9.12 113.24 9.04 113.42 8.99C113.59 8.95 113.8 8.92 114.03 8.92C114.55 8.92 118.7 8.92 119.22 8.92C119.88 8.92 120.35 9.09 120.65 9.41C120.94 9.73 121.08 10.16 121.08 10.69C121.08 13.27 121.08 33.84 121.08 36.41C121.08 36.7 121.02 36.97 120.89 37.22C120.76 37.46 120.58 37.65 120.35 37.79C120.36 37.78 120.4 37.76 120.48 37.72C120.21 37.9 120 38.01 119.85 38.04ZM145.8 35.88C145.3 36.36 144.75 36.8 144.16 37.22C143.56 37.63 142.91 37.97 142.23 38.24C141.51 38.51 140.76 38.65 140 38.64C137.91 38.64 135.99 38.25 134.24 37.47C132.53 36.72 130.99 35.63 129.71 34.26C128.45 32.91 127.46 31.31 126.75 29.47C126.04 27.63 125.68 25.66 125.68 23.54C125.68 21.41 126.04 19.43 126.75 17.6C127.46 15.77 128.45 14.18 129.71 12.82C130.99 11.46 132.53 10.37 134.24 9.63C135.99 8.85 137.91 8.47 140 8.47C140.84 8.47 141.61 8.59 142.31 8.83C142.98 9.07 143.62 9.38 144.21 9.78C144.79 10.16 145.32 10.59 145.8 11.07C146.28 11.56 146.74 12.03 147.17 12.49C147.17 11.44 147.17 3.04 147.17 1.99C147.17 1.5 147.32 1.08 147.61 0.75C147.91 0.41 148.36 0.24 148.96 0.24C149.48 0.24 153.61 0.24 154.13 0.24C154.33 0.24 154.54 0.28 154.76 0.37C154.98 0.45 155.19 0.57 155.37 0.72C155.55 0.88 155.7 1.06 155.82 1.27C155.93 1.49 155.99 1.73 155.99 1.99C155.99 5.42 155.99 32.91 155.99 36.34C155.99 37.52 155.37 38.11 154.13 38.11C153.68 38.11 150.08 38.11 149.63 38.11C149.32 38.11 149.08 38.07 148.91 38C148.75 37.92 148.6 37.81 148.49 37.66C148.36 37.49 148.25 37.31 148.18 37.11C148.07 36.85 147.95 36.6 147.83 36.34C147.79 36.22 147.57 35.62 147.17 34.55C146.59 35.12 146.13 35.57 145.8 35.88ZM134.42 26.38C134.74 27.26 135.19 28.02 135.77 28.67C136.36 29.31 137.07 29.83 137.87 30.19C138.69 30.57 139.6 30.76 140.59 30.76C141.57 30.76 142.5 30.58 143.36 30.23C144.2 29.89 144.97 29.4 145.63 28.77C146.28 28.14 146.8 27.4 147.18 26.58C147.57 25.73 147.79 24.83 147.83 23.86C147.83 23.83 147.83 23.57 147.83 23.54C147.84 22.58 147.65 21.63 147.28 20.74C146.92 19.87 146.41 19.07 145.75 18.39C145.1 17.72 144.32 17.17 143.46 16.8C142.55 16.4 141.58 16.2 140.59 16.21C139.6 16.21 138.69 16.41 137.87 16.8C137.05 17.19 136.35 17.72 135.77 18.39C135.18 19.08 134.72 19.88 134.42 20.74C134.11 21.64 133.95 22.59 133.95 23.54C133.94 24.51 134.1 25.47 134.42 26.38ZM181.3 35.88C180.81 36.36 180.26 36.8 179.66 37.22C179.06 37.63 178.41 37.97 177.73 38.24C177.02 38.51 176.26 38.65 175.5 38.64C173.42 38.64 171.5 38.25 169.75 37.47C168.03 36.72 166.49 35.63 165.22 34.26C163.95 32.91 162.97 31.31 162.25 29.47C161.54 27.63 161.18 25.66 161.18 23.54C161.18 21.41 161.54 19.43 162.25 17.6C162.97 15.77 163.95 14.18 165.22 12.82C166.49 11.46 168.03 10.37 169.75 9.63C171.5 8.85 173.42 8.47 175.5 8.47C176.34 8.47 177.11 8.59 177.81 8.83C178.48 9.07 179.12 9.38 179.72 9.78C180.29 10.16 180.82 10.59 181.3 11.07C181.79 11.56 182.24 12.03 182.67 12.49C182.67 11.44 182.67 3.04 182.67 1.99C182.67 1.5 182.82 1.08 183.12 0.75C183.42 0.41 183.87 0.24 184.46 0.24C184.98 0.24 189.12 0.24 189.63 0.24C189.83 0.24 190.04 0.28 190.27 0.37C190.49 0.45 190.69 0.57 190.88 0.72C191.06 0.88 191.21 1.06 191.32 1.27C191.44 1.49 191.5 1.73 191.5 1.99C191.5 5.42 191.5 32.91 191.5 36.34C191.5 37.52 190.88 38.11 189.63 38.11C189.18 38.11 185.58 38.11 185.13 38.11C184.82 38.11 184.59 38.07 184.42 38C184.25 37.92 184.11 37.81 183.99 37.66C183.86 37.49 183.76 37.31 183.68 37.11C183.57 36.85 183.46 36.6 183.34 36.34C183.29 36.22 183.07 35.62 182.67 34.55C182.09 35.12 181.64 35.57 181.3 35.88ZM169.93 26.38C170.24 27.26 170.69 28.02 171.27 28.67C171.86 29.31 172.58 29.83 173.38 30.19C174.2 30.57 175.1 30.76 176.1 30.76C177.08 30.76 178 30.58 178.87 30.23C179.71 29.89 180.48 29.4 181.13 28.77C181.78 28.14 182.31 27.4 182.68 26.58C183.07 25.73 183.29 24.83 183.34 23.86C183.34 23.83 183.34 23.57 183.34 23.54C183.34 22.58 183.15 21.63 182.79 20.74C182.43 19.87 181.91 19.07 181.26 18.39C180.6 17.72 179.82 17.17 178.96 16.8C178.06 16.4 177.08 16.2 176.1 16.21C175.1 16.21 174.2 16.41 173.38 16.8C172.56 17.19 171.86 17.72 171.27 18.39C170.68 19.08 170.23 19.88 169.93 20.74C169.61 21.64 169.45 22.59 169.46 23.54C169.45 24.51 169.61 25.47 169.93 26.38ZM197.98 0.77C198.22 0.43 198.64 0.26 199.24 0.26C199.8 0.26 204.31 0.26 204.87 0.26C205.03 0.26 205.19 0.3 205.35 0.39C205.53 0.48 205.69 0.6 205.83 0.74C205.97 0.9 206.09 1.08 206.19 1.3C206.29 1.51 206.34 1.75 206.34 2.01C206.34 5.44 206.34 32.91 206.34 36.34C206.34 36.92 206.18 37.36 205.85 37.66C205.52 37.96 205.09 38.11 204.57 38.11C204.04 38.11 199.77 38.11 199.24 38.11C198.64 38.11 198.22 37.96 197.98 37.66C197.73 37.36 197.61 36.92 197.61 36.34C197.61 34.05 197.61 22.61 197.61 2.01C197.69 1.41 197.81 0.99 197.98 0.77ZM231.76 37.53C230.06 38.22 228.24 38.58 226.41 38.57C224.31 38.57 222.32 38.19 220.45 37.42C218.63 36.68 216.96 35.6 215.54 34.24C214.12 32.87 212.98 31.25 212.18 29.45C211.35 27.61 210.94 25.61 210.94 23.45C210.94 22.1 211.1 20.8 211.43 19.53C211.75 18.29 212.22 17.1 212.83 15.98C213.44 14.88 214.18 13.85 215.04 12.94C215.9 12.02 216.88 11.22 217.95 10.56C219.04 9.89 220.21 9.37 221.44 9.02C222.73 8.64 224.07 8.46 225.42 8.47C226.69 8.47 227.92 8.64 229.12 8.97C230.31 9.31 231.43 9.78 232.48 10.4C233.53 11.01 234.49 11.75 235.37 12.6C236.23 13.45 236.99 14.39 237.62 15.42C238.25 16.44 238.74 17.53 239.08 18.68C239.42 19.84 239.6 21.03 239.6 22.25C239.6 23.05 239.58 23.7 239.56 24.21C239.54 24.71 239.42 25.12 239.2 25.41C238.99 25.71 238.63 25.92 238.14 26.03C237.64 26.15 236.91 26.21 235.94 26.21C234.29 26.21 221.05 26.21 219.4 26.21C219.55 27.19 219.86 28.01 220.33 28.67C220.76 29.29 221.31 29.83 221.95 30.24C222.56 30.63 223.21 30.91 223.9 31.08C224.54 31.24 225.19 31.33 225.85 31.33C226.41 31.33 226.97 31.27 227.55 31.16C228.13 31.05 228.69 30.89 229.24 30.7C229.76 30.52 230.26 30.3 230.74 30.03C231.19 29.78 231.55 29.52 231.83 29.24C232.07 29.04 232.28 28.89 232.46 28.79C232.64 28.69 232.82 28.64 233.02 28.64C233.22 28.64 233.43 28.71 233.63 28.85C233.88 29.03 234.12 29.23 234.33 29.45C234.58 29.72 236.53 31.93 236.77 32.21C236.94 32.41 237.05 32.59 237.09 32.74C237.14 32.91 237.16 33.07 237.16 33.24C237.16 33.55 237.08 33.81 236.91 34.03C236.74 34.26 236.54 34.45 236.31 34.62C234.98 35.85 233.44 36.83 231.76 37.53ZM223.52 15.83C222.95 16.07 222.42 16.39 221.95 16.79C221.46 17.18 221.02 17.64 220.63 18.14C220.25 18.62 219.93 19.13 219.67 19.68C220.85 19.68 230.24 19.68 231.41 19.68C231.11 19.1 230.76 18.55 230.37 18.03C230 17.53 229.57 17.08 229.08 16.69C228.59 16.3 228.03 16 227.43 15.8C226.81 15.58 226.08 15.48 225.26 15.48C224.66 15.48 224.08 15.59 223.52 15.83Z" id="g94Cj8otn"></path></defs><g><g><g><use xlink:href="#bFj3ditpX" opacity="1" fill="#ffffff" fill-opacity="1"></use><g><use xlink:href="#bFj3ditpX" opacity="1" fill-opacity="0" stroke="#000000" stroke-width="1" stroke-opacity="0"></use></g></g><g><use xlink:href="#f9ZMIjLPp" opacity="1" fill="#000000" fill-opacity="0"></use><g><use xlink:href="#f9ZMIjLPp" opacity="1" fill-opacity="0" stroke="#000000" stroke-width="1" stroke-opacity="0"></use></g></g><g><use xlink:href="#c1GcCPuKhm" opacity="1" fill="#ffffff" fill-opacity="1"></use><g><use xlink:href="#c1GcCPuKhm" opacity="1" fill-opacity="0" stroke="#000000" stroke-width="1" stroke-opacity="0"></use></g></g><g><use xlink:href="#bzaN9hfI6" opacity="1" fill="#000000" fill-opacity="0"></use><g><use xlink:href="#bzaN9hfI6" opacity="1" fill-opacity="0" stroke="#000000" stroke-width="1" stroke-opacity="0"></use></g></g><g><use xlink:href="#chdjyl8JV" opacity="1" fill="#ffffff" fill-opacity="1"></use><g><use xlink:href="#chdjyl8JV" opacity="1" fill-opacity="0" stroke="#000000" stroke-width="1" stroke-opacity="0"></use></g></g><g><use xlink:href="#g94Cj8otn" opacity="1" fill="#ffffff" fill-opacity="1"></use><g><use xlink:href="#g94Cj8otn" opacity="1" fill-opacity="0" stroke="#000000" stroke-width="1" stroke-opacity="0"></use></g></g></g></g></svg>